<?xml version="1.0" encoding="utf-8" standalone="no"?>
<!DOCTYPE svg PUBLIC "-//W3C//DTD SVG 1.1//EN"
  "http://www.w3.org/Graphics/SVG/1.1/DTD/svg11.dtd">
<svg xmlns:xlink="http://www.w3.org/1999/xlink" width="603.002983pt" height="315.267437pt" viewBox="0 0 603.002983 315.267437" xmlns="http://www.w3.org/2000/svg" version="1.1">
 <metadata>
  <rdf:RDF xmlns:dc="http://purl.org/dc/elements/1.1/" xmlns:cc="http://creativecommons.org/ns#" xmlns:rdf="http://www.w3.org/1999/02/22-rdf-syntax-ns#">
   <cc:Work>
    <dc:type rdf:resource="http://purl.org/dc/dcmitype/StillImage"/>
    <dc:date>2025-04-08T09:03:42.817457</dc:date>
    <dc:format>image/svg+xml</dc:format>
    <dc:creator>
     <cc:Agent>
      <dc:title>Matplotlib v3.10.1, https://matplotlib.org/</dc:title>
     </cc:Agent>
    </dc:creator>
   </cc:Work>
  </rdf:RDF>
 </metadata>
 <defs>
  <style type="text/css">*{stroke-linejoin: round; stroke-linecap: butt}</style>
 </defs>
 <g id="figure_1">
  <g id="patch_1">
   <path d="M -0 315.267437 
L 603.002983 315.267437 
L 603.002983 -0 
L -0 -0 
z
" style="fill: #ffffff"/>
  </g>
  <g id="axes_1">
   <g id="patch_2">
    <path d="M 120.439148 308.067437 
L 477.559148 308.067437 
L 477.559148 41.955437 
L 120.439148 41.955437 
z
" style="fill: #ffffff"/>
   </g>
   <g id="matplotlib.axis_1">
    <g id="xtick_1">
     <g id="line2d_1">
      <defs>
       <path id="m8f157e408f" d="M 0 0 
L 0 -3.5 
" style="stroke: #000000; stroke-width: 0.8"/>
      </defs>
      <g>
       <use xlink:href="#m8f157e408f" x="138.279076" y="54.051437" style="stroke: #000000; stroke-width: 0.8"/>
      </g>
     </g>
     <g id="text_1">
      <!-- 1.00 -->
      <g transform="translate(128.550169 44.17175) scale(0.1 -0.1)">
       <defs>
        <path id="Avenir-Book-31" d="M 2227 0 
L 1766 0 
L 1766 3955 
L 954 3238 
L 666 3584 
L 1818 4531 
L 2227 4531 
L 2227 0 
z
" transform="scale(0.015625)"/>
        <path id="Avenir-Book-2e" d="M 1235 307 
Q 1235 173 1139 67 
Q 1043 -38 890 -38 
Q 736 -38 640 67 
Q 544 173 544 307 
Q 544 442 640 547 
Q 736 653 890 653 
Q 1043 653 1139 547 
Q 1235 442 1235 307 
z
" transform="scale(0.015625)"/>
        <path id="Avenir-Book-30" d="M 1779 4186 
Q 1408 4186 1193 3987 
Q 979 3789 870 3494 
Q 762 3200 733 2867 
Q 704 2534 704 2266 
Q 704 1997 733 1664 
Q 762 1331 870 1036 
Q 979 742 1193 544 
Q 1408 346 1779 346 
Q 2150 346 2364 544 
Q 2579 742 2688 1036 
Q 2797 1331 2825 1664 
Q 2854 1997 2854 2266 
Q 2854 2534 2825 2867 
Q 2797 3200 2688 3494 
Q 2579 3789 2364 3987 
Q 2150 4186 1779 4186 
z
M 1779 4608 
Q 2266 4608 2566 4384 
Q 2867 4160 3033 3814 
Q 3200 3469 3257 3056 
Q 3315 2643 3315 2266 
Q 3315 1888 3257 1475 
Q 3200 1062 3033 716 
Q 2867 371 2566 147 
Q 2266 -77 1779 -77 
Q 1293 -77 992 147 
Q 691 371 524 716 
Q 358 1062 300 1475 
Q 243 1888 243 2266 
Q 243 2643 300 3056 
Q 358 3469 524 3814 
Q 691 4160 992 4384 
Q 1293 4608 1779 4608 
z
" transform="scale(0.015625)"/>
       </defs>
       <use xlink:href="#Avenir-Book-31"/>
       <use xlink:href="#Avenir-Book-2e" transform="translate(55.599991 0)"/>
       <use xlink:href="#Avenir-Book-30" transform="translate(83.399979 0)"/>
       <use xlink:href="#Avenir-Book-30" transform="translate(138.999969 0)"/>
      </g>
     </g>
    </g>
    <g id="xtick_2">
     <g id="line2d_2">
      <g>
       <use xlink:href="#m8f157e408f" x="178.459094" y="54.051437" style="stroke: #000000; stroke-width: 0.8"/>
      </g>
     </g>
     <g id="text_2">
      <!-- 1.25 -->
      <g transform="translate(168.730187 44.17175) scale(0.1 -0.1)">
       <defs>
        <path id="Avenir-Book-32" d="M 3187 0 
L 307 0 
L 307 531 
L 2112 2368 
Q 2214 2470 2316 2585 
Q 2419 2701 2502 2829 
Q 2586 2957 2637 3097 
Q 2688 3238 2688 3392 
Q 2688 3578 2621 3725 
Q 2554 3872 2432 3974 
Q 2310 4077 2150 4131 
Q 1990 4186 1811 4186 
Q 1466 4186 1222 3994 
Q 979 3802 909 3475 
L 422 3526 
Q 518 4032 886 4320 
Q 1254 4608 1779 4608 
Q 2054 4608 2300 4534 
Q 2547 4461 2736 4313 
Q 2925 4166 3037 3945 
Q 3149 3725 3149 3430 
Q 3149 3168 3069 2950 
Q 2989 2733 2861 2541 
Q 2733 2349 2569 2176 
Q 2406 2003 2234 1837 
L 806 422 
L 3187 422 
L 3187 0 
z
" transform="scale(0.015625)"/>
        <path id="Avenir-Book-35" d="M 2976 4109 
L 1120 4109 
L 1094 2746 
Q 1242 2803 1395 2828 
Q 1549 2854 1702 2854 
Q 2022 2854 2284 2745 
Q 2547 2637 2736 2441 
Q 2925 2246 3030 1980 
Q 3136 1715 3136 1402 
Q 3136 1075 3021 803 
Q 2906 531 2701 336 
Q 2496 141 2217 32 
Q 1939 -77 1613 -77 
Q 1184 -77 838 128 
Q 493 333 307 730 
L 762 928 
Q 890 659 1120 502 
Q 1350 346 1651 346 
Q 1869 346 2054 426 
Q 2240 506 2377 640 
Q 2515 774 2595 960 
Q 2675 1146 2675 1357 
Q 2675 1594 2592 1792 
Q 2509 1990 2361 2134 
Q 2214 2278 2009 2355 
Q 1805 2432 1562 2432 
Q 1318 2432 1078 2365 
Q 838 2298 621 2182 
L 666 4531 
L 2976 4531 
L 2976 4109 
z
" transform="scale(0.015625)"/>
       </defs>
       <use xlink:href="#Avenir-Book-31"/>
       <use xlink:href="#Avenir-Book-2e" transform="translate(55.599991 0)"/>
       <use xlink:href="#Avenir-Book-32" transform="translate(83.399979 0)"/>
       <use xlink:href="#Avenir-Book-35" transform="translate(138.999969 0)"/>
      </g>
     </g>
    </g>
    <g id="xtick_3">
     <g id="line2d_3">
      <g>
       <use xlink:href="#m8f157e408f" x="218.639112" y="54.051437" style="stroke: #000000; stroke-width: 0.8"/>
      </g>
     </g>
     <g id="text_3">
      <!-- 1.50 -->
      <g transform="translate(208.910205 44.17175) scale(0.1 -0.1)">
       <use xlink:href="#Avenir-Book-31"/>
       <use xlink:href="#Avenir-Book-2e" transform="translate(55.599991 0)"/>
       <use xlink:href="#Avenir-Book-35" transform="translate(83.399979 0)"/>
       <use xlink:href="#Avenir-Book-30" transform="translate(138.999969 0)"/>
      </g>
     </g>
    </g>
    <g id="xtick_4">
     <g id="line2d_4">
      <g>
       <use xlink:href="#m8f157e408f" x="258.81913" y="54.051437" style="stroke: #000000; stroke-width: 0.8"/>
      </g>
     </g>
     <g id="text_4">
      <!-- 1.75 -->
      <g transform="translate(249.090223 44.17175) scale(0.1 -0.1)">
       <defs>
        <path id="Avenir-Book-37" d="M 3034 4109 
L 1210 0 
L 691 0 
L 2554 4109 
L 346 4109 
L 346 4531 
L 3034 4531 
L 3034 4109 
z
" transform="scale(0.015625)"/>
       </defs>
       <use xlink:href="#Avenir-Book-31"/>
       <use xlink:href="#Avenir-Book-2e" transform="translate(55.599991 0)"/>
       <use xlink:href="#Avenir-Book-37" transform="translate(83.399979 0)"/>
       <use xlink:href="#Avenir-Book-35" transform="translate(138.999969 0)"/>
      </g>
     </g>
    </g>
    <g id="xtick_5">
     <g id="line2d_5">
      <g>
       <use xlink:href="#m8f157e408f" x="298.999148" y="54.051437" style="stroke: #000000; stroke-width: 0.8"/>
      </g>
     </g>
     <g id="text_5">
      <!-- 2.00 -->
      <g transform="translate(289.270241 44.17175) scale(0.1 -0.1)">
       <use xlink:href="#Avenir-Book-32"/>
       <use xlink:href="#Avenir-Book-2e" transform="translate(55.599991 0)"/>
       <use xlink:href="#Avenir-Book-30" transform="translate(83.399979 0)"/>
       <use xlink:href="#Avenir-Book-30" transform="translate(138.999969 0)"/>
      </g>
     </g>
    </g>
    <g id="xtick_6">
     <g id="line2d_6">
      <g>
       <use xlink:href="#m8f157e408f" x="339.179166" y="54.051437" style="stroke: #000000; stroke-width: 0.8"/>
      </g>
     </g>
     <g id="text_6">
      <!-- 2.25 -->
      <g transform="translate(329.450259 44.17175) scale(0.1 -0.1)">
       <use xlink:href="#Avenir-Book-32"/>
       <use xlink:href="#Avenir-Book-2e" transform="translate(55.599991 0)"/>
       <use xlink:href="#Avenir-Book-32" transform="translate(83.399979 0)"/>
       <use xlink:href="#Avenir-Book-35" transform="translate(138.999969 0)"/>
      </g>
     </g>
    </g>
    <g id="xtick_7">
     <g id="line2d_7">
      <g>
       <use xlink:href="#m8f157e408f" x="379.359184" y="54.051437" style="stroke: #000000; stroke-width: 0.8"/>
      </g>
     </g>
     <g id="text_7">
      <!-- 2.50 -->
      <g transform="translate(369.630277 44.17175) scale(0.1 -0.1)">
       <use xlink:href="#Avenir-Book-32"/>
       <use xlink:href="#Avenir-Book-2e" transform="translate(55.599991 0)"/>
       <use xlink:href="#Avenir-Book-35" transform="translate(83.399979 0)"/>
       <use xlink:href="#Avenir-Book-30" transform="translate(138.999969 0)"/>
      </g>
     </g>
    </g>
    <g id="xtick_8">
     <g id="line2d_8">
      <g>
       <use xlink:href="#m8f157e408f" x="419.539202" y="54.051437" style="stroke: #000000; stroke-width: 0.8"/>
      </g>
     </g>
     <g id="text_8">
      <!-- 2.75 -->
      <g transform="translate(409.810295 44.17175) scale(0.1 -0.1)">
       <use xlink:href="#Avenir-Book-32"/>
       <use xlink:href="#Avenir-Book-2e" transform="translate(55.599991 0)"/>
       <use xlink:href="#Avenir-Book-37" transform="translate(83.399979 0)"/>
       <use xlink:href="#Avenir-Book-35" transform="translate(138.999969 0)"/>
      </g>
     </g>
    </g>
    <g id="xtick_9">
     <g id="line2d_9">
      <g>
       <use xlink:href="#m8f157e408f" x="459.71922" y="54.051437" style="stroke: #000000; stroke-width: 0.8"/>
      </g>
     </g>
     <g id="text_9">
      <!-- 3.00 -->
      <g transform="translate(449.990313 44.17175) scale(0.1 -0.1)">
       <defs>
        <path id="Avenir-Book-33" d="M 1306 2586 
L 1542 2586 
Q 1741 2586 1923 2630 
Q 2106 2675 2240 2774 
Q 2374 2874 2454 3034 
Q 2534 3194 2534 3418 
Q 2534 3782 2313 3984 
Q 2093 4186 1696 4186 
Q 1408 4186 1190 4058 
Q 973 3930 832 3686 
L 429 3891 
Q 634 4256 950 4432 
Q 1267 4608 1683 4608 
Q 1952 4608 2189 4531 
Q 2426 4454 2605 4304 
Q 2784 4154 2889 3933 
Q 2995 3712 2995 3430 
Q 2995 3245 2934 3078 
Q 2874 2912 2768 2777 
Q 2662 2643 2521 2544 
Q 2381 2445 2227 2394 
L 2246 2381 
Q 2438 2342 2598 2236 
Q 2758 2131 2873 1977 
Q 2989 1824 3053 1632 
Q 3117 1440 3117 1229 
Q 3117 915 3001 672 
Q 2886 429 2688 262 
Q 2490 96 2227 9 
Q 1965 -77 1670 -77 
Q 1171 -77 800 140 
Q 429 358 243 838 
L 730 986 
Q 845 659 1072 502 
Q 1299 346 1709 346 
Q 1901 346 2073 410 
Q 2246 474 2377 592 
Q 2509 710 2582 876 
Q 2656 1043 2656 1242 
Q 2656 1498 2560 1674 
Q 2464 1850 2304 1958 
Q 2144 2067 1936 2115 
Q 1728 2163 1504 2163 
L 1306 2163 
L 1306 2586 
z
" transform="scale(0.015625)"/>
       </defs>
       <use xlink:href="#Avenir-Book-33"/>
       <use xlink:href="#Avenir-Book-2e" transform="translate(55.599991 0)"/>
       <use xlink:href="#Avenir-Book-30" transform="translate(83.399979 0)"/>
       <use xlink:href="#Avenir-Book-30" transform="translate(138.999969 0)"/>
      </g>
     </g>
    </g>
   </g>
   <g id="line2d_10">
    <path d="M 136.671875 247.587437 
L 138.279076 247.587437 
L 138.279076 54.051437 
" clip-path="url(#p1288a02d3b)" style="fill: none; stroke: #2ca02c; stroke-width: 1.5; stroke-linecap: square"/>
   </g>
   <g id="line2d_11">
    <path d="M 461.32642 247.587437 
L 459.71922 247.587437 
L 459.71922 54.051437 
" clip-path="url(#p1288a02d3b)" style="fill: none; stroke: #1f77b4; stroke-width: 1.5; stroke-linecap: square"/>
   </g>
   <g id="line2d_12">
    <path d="M 461.32642 295.971437 
L 298.999148 295.971437 
L 298.999148 54.051437 
" clip-path="url(#p1288a02d3b)" style="fill: none; stroke: #ff7f0e; stroke-width: 1.5; stroke-linecap: square"/>
   </g>
   <g id="line2d_13">
    <path d="M 233.103918 199.203437 
L 234.711119 199.203437 
L 234.711119 54.051437 
" clip-path="url(#p1288a02d3b)" style="fill: none; stroke: #ff7f0e; stroke-width: 1.5; stroke-linecap: square"/>
   </g>
   <g id="line2d_14">
    <path d="M 413.110399 199.203437 
L 411.503198 199.203437 
L 411.503198 54.051437 
" clip-path="url(#p1288a02d3b)" style="fill: none; stroke: #1f77b4; stroke-width: 1.5; stroke-linecap: square"/>
   </g>
   <g id="line2d_15">
    <path d="M 413.110399 247.587437 
L 250.783126 247.587437 
L 250.783126 54.051437 
" clip-path="url(#p1288a02d3b)" style="fill: none; stroke: #2ca02c; stroke-width: 1.5; stroke-linecap: square"/>
   </g>
   <g id="patch_3">
    <path d="M 120.439148 54.051437 
L 477.559148 54.051437 
" style="fill: none; stroke: #000000; stroke-width: 0.8; stroke-linejoin: miter; stroke-linecap: square"/>
   </g>
   <g id="line2d_16">
    <path d="M 298.999148 102.435437 
L 138.279076 102.435437 
L 459.71922 102.435437 
" clip-path="url(#p1288a02d3b)" style="fill: none; stroke: #2ca02c; stroke-width: 2; stroke-linecap: square"/>
   </g>
   <g id="line2d_17">
    <path d="M 298.999148 150.819437 
L 138.279076 150.819437 
L 459.71922 150.819437 
" clip-path="url(#p1288a02d3b)" style="fill: none; stroke: #ff7f0e; stroke-width: 2; stroke-linecap: square"/>
   </g>
   <g id="line2d_18">
    <path d="M 298.999148 199.203437 
L 138.279076 199.203437 
L 459.71922 199.203437 
" clip-path="url(#p1288a02d3b)" style="fill: none; stroke: #1f77b4; stroke-width: 2; stroke-linecap: square"/>
   </g>
   <g id="PathCollection_1">
    <defs>
     <path id="me41b40f128" d="M 0 3 
C 0.795609 3 1.55874 2.683901 2.12132 2.12132 
C 2.683901 1.55874 3 0.795609 3 0 
C 3 -0.795609 2.683901 -1.55874 2.12132 -2.12132 
C 1.55874 -2.683901 0.795609 -3 0 -3 
C -0.795609 -3 -1.55874 -2.683901 -2.12132 -2.12132 
C -2.683901 -1.55874 -3 -0.795609 -3 0 
C -3 0.795609 -2.683901 1.55874 -2.12132 2.12132 
C -1.55874 2.683901 -0.795609 3 0 3 
z
" style="stroke: #2ca02c"/>
    </defs>
    <g clip-path="url(#p1288a02d3b)">
     <use xlink:href="#me41b40f128" x="138.279076" y="54.051437" style="fill: #2ca02c; stroke: #2ca02c"/>
    </g>
   </g>
   <g id="text_10">
    <!-- MultiOmicsRandomForest (1) -->
    <g style="fill: #2ca02c" transform="translate(7.2 249.927281) scale(0.1 -0.1)">
     <defs>
      <path id="Avenir-Book-4d" d="M 2848 845 
L 4378 4531 
L 5082 4531 
L 5082 0 
L 4621 0 
L 4621 3917 
L 4608 3917 
L 2970 0 
L 2726 0 
L 1088 3917 
L 1075 3917 
L 1075 0 
L 614 0 
L 614 4531 
L 1318 4531 
L 2848 845 
z
" transform="scale(0.015625)"/>
      <path id="Avenir-Book-75" d="M 2624 0 
Q 2611 122 2608 240 
Q 2605 358 2605 480 
L 2592 480 
Q 2522 358 2413 256 
Q 2304 154 2169 80 
Q 2035 6 1884 -35 
Q 1734 -77 1587 -77 
Q 1011 -77 736 227 
Q 461 531 461 1094 
L 461 2995 
L 883 2995 
L 883 1338 
Q 883 1088 921 896 
Q 960 704 1053 573 
Q 1146 442 1302 374 
Q 1459 307 1696 307 
Q 1728 307 1875 332 
Q 2022 358 2185 473 
Q 2349 589 2477 819 
Q 2605 1050 2605 1459 
L 2605 2995 
L 3027 2995 
L 3027 659 
Q 3027 538 3036 352 
Q 3046 166 3059 0 
L 2624 0 
z
" transform="scale(0.015625)"/>
      <path id="Avenir-Book-6c" d="M 979 0 
L 557 0 
L 557 4838 
L 979 4838 
L 979 0 
z
" transform="scale(0.015625)"/>
      <path id="Avenir-Book-74" d="M 2010 2611 
L 1146 2611 
L 1146 845 
Q 1146 678 1178 572 
Q 1210 467 1267 409 
Q 1325 352 1405 329 
Q 1485 307 1581 307 
Q 1690 307 1805 339 
Q 1920 371 2016 422 
L 2035 32 
Q 1798 -77 1466 -77 
Q 1344 -77 1213 -45 
Q 1082 -13 973 76 
Q 864 166 793 320 
Q 723 474 723 723 
L 723 2611 
L 90 2611 
L 90 2995 
L 723 2995 
L 723 3840 
L 1146 3840 
L 1146 2995 
L 2010 2995 
L 2010 2611 
z
" transform="scale(0.015625)"/>
      <path id="Avenir-Book-69" d="M 1075 4147 
Q 1075 4013 979 3926 
Q 883 3840 768 3840 
Q 653 3840 557 3926 
Q 461 4013 461 4147 
Q 461 4282 557 4368 
Q 653 4454 768 4454 
Q 883 4454 979 4368 
Q 1075 4282 1075 4147 
z
M 979 0 
L 557 0 
L 557 2995 
L 979 2995 
L 979 0 
z
" transform="scale(0.015625)"/>
      <path id="Avenir-Book-4f" d="M 4531 2266 
Q 4531 2656 4403 3011 
Q 4275 3366 4035 3635 
Q 3795 3904 3449 4064 
Q 3104 4224 2669 4224 
Q 2234 4224 1888 4064 
Q 1542 3904 1302 3635 
Q 1062 3366 934 3011 
Q 806 2656 806 2266 
Q 806 1875 934 1520 
Q 1062 1165 1302 896 
Q 1542 627 1888 467 
Q 2234 307 2669 307 
Q 3104 307 3449 467 
Q 3795 627 4035 896 
Q 4275 1165 4403 1520 
Q 4531 1875 4531 2266 
z
M 5030 2266 
Q 5030 1747 4851 1312 
Q 4672 877 4355 560 
Q 4038 243 3606 64 
Q 3174 -115 2669 -115 
Q 2163 -115 1731 64 
Q 1299 243 982 560 
Q 666 877 486 1312 
Q 307 1747 307 2266 
Q 307 2784 486 3219 
Q 666 3654 982 3971 
Q 1299 4288 1731 4467 
Q 2163 4646 2669 4646 
Q 3174 4646 3606 4467 
Q 4038 4288 4355 3971 
Q 4672 3654 4851 3219 
Q 5030 2784 5030 2266 
z
" transform="scale(0.015625)"/>
      <path id="Avenir-Book-6d" d="M 461 2330 
Q 461 2496 451 2662 
Q 442 2829 429 2995 
L 883 2995 
L 883 2541 
L 896 2541 
Q 1050 2803 1322 2937 
Q 1594 3072 1862 3072 
Q 1984 3072 2121 3046 
Q 2259 3021 2387 2953 
Q 2515 2886 2627 2764 
Q 2739 2643 2816 2451 
Q 2944 2739 3222 2905 
Q 3501 3072 3802 3072 
Q 4378 3072 4653 2768 
Q 4928 2464 4928 1901 
L 4928 0 
L 4506 0 
L 4506 1747 
Q 4506 2202 4346 2445 
Q 4186 2688 3750 2688 
Q 3514 2688 3354 2595 
Q 3194 2502 3094 2348 
Q 2995 2195 2950 2000 
Q 2906 1805 2906 1594 
L 2906 0 
L 2483 0 
L 2483 1747 
Q 2483 2202 2323 2445 
Q 2163 2688 1728 2688 
Q 1690 2688 1552 2662 
Q 1414 2637 1267 2521 
Q 1120 2406 1001 2176 
Q 883 1946 883 1536 
L 883 0 
L 461 0 
L 461 2330 
z
" transform="scale(0.015625)"/>
      <path id="Avenir-Book-63" d="M 2643 2291 
Q 2534 2458 2339 2573 
Q 2144 2688 1894 2688 
Q 1632 2694 1424 2604 
Q 1216 2515 1069 2355 
Q 922 2195 845 1974 
Q 768 1754 768 1498 
Q 768 1242 845 1021 
Q 922 800 1069 640 
Q 1216 480 1424 390 
Q 1632 301 1894 307 
Q 2144 307 2339 422 
Q 2534 538 2643 704 
L 2989 442 
Q 2765 179 2483 54 
Q 2202 -70 1894 -77 
Q 1530 -83 1235 35 
Q 941 154 733 365 
Q 525 576 416 867 
Q 307 1158 307 1498 
Q 307 1837 416 2128 
Q 525 2419 733 2630 
Q 941 2842 1235 2960 
Q 1530 3078 1894 3072 
Q 2202 3066 2483 2941 
Q 2765 2816 2989 2554 
L 2643 2291 
z
" transform="scale(0.015625)"/>
      <path id="Avenir-Book-73" d="M 2048 2285 
Q 1952 2470 1792 2579 
Q 1632 2688 1402 2688 
Q 1293 2688 1181 2662 
Q 1069 2637 979 2582 
Q 890 2528 835 2445 
Q 781 2362 781 2240 
Q 781 2029 928 1933 
Q 1075 1837 1370 1766 
L 1798 1664 
Q 2112 1594 2320 1379 
Q 2528 1165 2528 845 
Q 2528 602 2429 426 
Q 2330 250 2166 138 
Q 2003 26 1792 -25 
Q 1581 -77 1363 -77 
Q 1018 -77 720 54 
Q 422 186 211 506 
L 576 755 
Q 704 550 899 428 
Q 1094 307 1363 307 
Q 1491 307 1619 336 
Q 1747 365 1846 425 
Q 1946 486 2006 582 
Q 2067 678 2067 806 
Q 2067 1030 1900 1129 
Q 1734 1229 1498 1286 
L 1088 1382 
Q 1011 1402 880 1446 
Q 749 1491 624 1580 
Q 499 1670 409 1814 
Q 320 1958 320 2170 
Q 320 2400 413 2573 
Q 506 2746 662 2854 
Q 819 2963 1017 3017 
Q 1216 3072 1427 3072 
Q 1741 3072 2009 2950 
Q 2278 2829 2426 2534 
L 2048 2285 
z
" transform="scale(0.015625)"/>
      <path id="Avenir-Book-52" d="M 1075 2528 
L 1894 2528 
Q 2202 2528 2416 2592 
Q 2630 2656 2758 2761 
Q 2886 2867 2944 3011 
Q 3002 3155 3002 3322 
Q 3002 3482 2944 3626 
Q 2886 3770 2758 3878 
Q 2630 3987 2416 4048 
Q 2202 4109 1894 4109 
L 1075 4109 
L 1075 2528 
z
M 1075 0 
L 614 0 
L 614 4531 
L 2010 4531 
Q 2701 4531 3101 4230 
Q 3501 3930 3501 3322 
Q 3501 2848 3203 2525 
Q 2906 2202 2342 2150 
L 3648 0 
L 3085 0 
L 1843 2106 
L 1075 2106 
L 1075 0 
z
" transform="scale(0.015625)"/>
      <path id="Avenir-Book-61" d="M 2163 1491 
Q 2003 1491 1763 1475 
Q 1523 1459 1302 1398 
Q 1082 1338 925 1210 
Q 768 1082 768 858 
Q 768 710 829 604 
Q 890 499 992 432 
Q 1094 365 1219 336 
Q 1344 307 1472 307 
Q 1702 307 1872 384 
Q 2042 461 2157 592 
Q 2272 723 2326 899 
Q 2381 1075 2381 1274 
L 2381 1491 
L 2163 1491 
z
M 2381 1837 
L 2381 1914 
Q 2381 2688 1613 2688 
Q 1088 2688 698 2336 
L 442 2637 
Q 864 3072 1709 3072 
Q 1926 3072 2128 3008 
Q 2330 2944 2477 2813 
Q 2624 2682 2713 2483 
Q 2803 2285 2803 2010 
L 2803 672 
Q 2803 499 2819 310 
Q 2835 122 2854 0 
L 2445 0 
Q 2426 109 2416 237 
Q 2406 365 2406 486 
L 2394 486 
Q 2208 186 1955 54 
Q 1702 -77 1338 -77 
Q 1139 -77 953 -22 
Q 768 32 624 144 
Q 480 256 393 419 
Q 307 582 307 800 
Q 307 1165 496 1373 
Q 685 1581 969 1683 
Q 1254 1786 1577 1811 
Q 1901 1837 2170 1837 
L 2381 1837 
z
" transform="scale(0.015625)"/>
      <path id="Avenir-Book-6e" d="M 864 2995 
Q 877 2874 880 2755 
Q 883 2637 883 2515 
L 896 2515 
Q 966 2637 1075 2739 
Q 1184 2842 1318 2915 
Q 1453 2989 1603 3030 
Q 1754 3072 1901 3072 
Q 2477 3072 2752 2768 
Q 3027 2464 3027 1901 
L 3027 0 
L 2605 0 
L 2605 1658 
Q 2605 2157 2432 2422 
Q 2259 2688 1792 2688 
Q 1760 2688 1613 2662 
Q 1466 2637 1302 2521 
Q 1139 2406 1011 2176 
Q 883 1946 883 1536 
L 883 0 
L 461 0 
L 461 2336 
Q 461 2458 451 2643 
Q 442 2829 429 2995 
L 864 2995 
z
" transform="scale(0.015625)"/>
      <path id="Avenir-Book-64" d="M 717 1498 
Q 717 1248 797 1030 
Q 877 813 1024 653 
Q 1171 493 1379 400 
Q 1587 307 1850 307 
Q 2106 307 2326 400 
Q 2547 493 2707 653 
Q 2867 813 2956 1030 
Q 3046 1248 3046 1498 
Q 3046 1747 2956 1964 
Q 2867 2182 2707 2342 
Q 2547 2502 2326 2595 
Q 2106 2688 1850 2688 
Q 1587 2688 1379 2595 
Q 1171 2502 1024 2342 
Q 877 2182 797 1964 
Q 717 1747 717 1498 
z
M 3450 0 
L 3027 0 
L 3027 499 
L 3014 499 
Q 2912 346 2771 237 
Q 2630 128 2476 57 
Q 2323 -13 2160 -45 
Q 1997 -77 1850 -77 
Q 1498 -77 1206 41 
Q 915 160 704 371 
Q 493 582 374 870 
Q 256 1158 256 1498 
Q 256 1837 374 2125 
Q 493 2413 704 2624 
Q 915 2835 1206 2953 
Q 1498 3072 1850 3072 
Q 1997 3072 2160 3040 
Q 2323 3008 2476 2937 
Q 2630 2867 2771 2758 
Q 2912 2650 3014 2496 
L 3027 2496 
L 3027 4838 
L 3450 4838 
L 3450 0 
z
" transform="scale(0.015625)"/>
      <path id="Avenir-Book-6f" d="M 3027 1498 
Q 3027 1747 2947 1964 
Q 2867 2182 2720 2342 
Q 2573 2502 2365 2595 
Q 2157 2688 1894 2688 
Q 1632 2688 1424 2595 
Q 1216 2502 1072 2342 
Q 928 2182 848 1964 
Q 768 1747 768 1498 
Q 768 1248 848 1030 
Q 928 813 1072 653 
Q 1216 493 1424 400 
Q 1632 307 1894 307 
Q 2157 307 2365 400 
Q 2573 493 2720 653 
Q 2867 813 2947 1030 
Q 3027 1248 3027 1498 
z
M 3488 1498 
Q 3488 1158 3369 870 
Q 3251 582 3040 371 
Q 2829 160 2537 41 
Q 2246 -77 1894 -77 
Q 1549 -77 1257 41 
Q 966 160 755 371 
Q 544 582 425 870 
Q 307 1158 307 1498 
Q 307 1837 425 2125 
Q 544 2413 755 2624 
Q 966 2835 1257 2953 
Q 1549 3072 1894 3072 
Q 2246 3072 2537 2953 
Q 2829 2835 3040 2624 
Q 3251 2413 3369 2125 
Q 3488 1837 3488 1498 
z
" transform="scale(0.015625)"/>
      <path id="Avenir-Book-46" d="M 1075 0 
L 614 0 
L 614 4531 
L 3347 4531 
L 3347 4109 
L 1075 4109 
L 1075 2566 
L 3187 2566 
L 3187 2144 
L 1075 2144 
L 1075 0 
z
" transform="scale(0.015625)"/>
      <path id="Avenir-Book-72" d="M 506 2061 
Q 506 2259 496 2464 
Q 486 2669 480 2995 
L 896 2995 
L 896 2438 
L 909 2438 
Q 954 2560 1037 2672 
Q 1120 2784 1238 2873 
Q 1357 2963 1513 3017 
Q 1670 3072 1869 3072 
Q 2048 3072 2182 3034 
L 2099 2618 
Q 2016 2650 1856 2650 
Q 1613 2650 1440 2557 
Q 1267 2464 1152 2320 
Q 1037 2176 982 2009 
Q 928 1843 928 1690 
L 928 0 
L 506 0 
L 506 2061 
z
" transform="scale(0.015625)"/>
      <path id="Avenir-Book-65" d="M 2790 1728 
Q 2790 2157 2534 2422 
Q 2278 2688 1818 2688 
Q 1613 2688 1421 2608 
Q 1229 2528 1085 2393 
Q 941 2259 854 2086 
Q 768 1914 768 1728 
L 2790 1728 
z
M 755 1382 
Q 774 1158 864 960 
Q 954 762 1101 618 
Q 1248 474 1440 390 
Q 1632 307 1856 307 
Q 2195 307 2441 464 
Q 2688 621 2816 826 
L 3142 557 
Q 2874 218 2550 70 
Q 2227 -77 1856 -77 
Q 1523 -77 1238 41 
Q 954 160 749 371 
Q 544 582 425 870 
Q 307 1158 307 1498 
Q 307 1837 422 2125 
Q 538 2413 742 2624 
Q 947 2835 1222 2953 
Q 1498 3072 1818 3072 
Q 2157 3072 2425 2950 
Q 2694 2829 2876 2627 
Q 3059 2426 3155 2154 
Q 3251 1882 3251 1574 
L 3251 1382 
L 755 1382 
z
" transform="scale(0.015625)"/>
      <path id="Avenir-Book-20" transform="scale(0.015625)"/>
      <path id="Avenir-Book-28" d="M 1613 4493 
Q 1408 4166 1251 3859 
Q 1094 3552 985 3235 
Q 877 2918 822 2579 
Q 768 2240 768 1843 
Q 768 1446 822 1113 
Q 877 781 979 473 
Q 1082 166 1235 -134 
Q 1389 -435 1587 -768 
L 1248 -1024 
Q 819 -422 582 320 
Q 346 1062 346 1843 
Q 346 2586 579 3334 
Q 813 4083 1274 4710 
L 1613 4493 
z
" transform="scale(0.015625)"/>
      <path id="Avenir-Book-29" d="M 51 -806 
Q 256 -480 413 -173 
Q 570 134 678 451 
Q 787 768 841 1107 
Q 896 1446 896 1843 
Q 896 2240 841 2573 
Q 787 2906 684 3213 
Q 582 3520 428 3821 
Q 275 4122 77 4454 
L 416 4710 
Q 845 4109 1081 3366 
Q 1318 2624 1318 1843 
Q 1318 1101 1084 352 
Q 851 -397 390 -1024 
L 51 -806 
z
" transform="scale(0.015625)"/>
     </defs>
     <use xlink:href="#Avenir-Book-4d"/>
     <use xlink:href="#Avenir-Book-75" transform="translate(88.999985 0)"/>
     <use xlink:href="#Avenir-Book-6c" transform="translate(144.599976 0)"/>
     <use xlink:href="#Avenir-Book-74" transform="translate(168.59996 0)"/>
     <use xlink:href="#Avenir-Book-69" transform="translate(201.799957 0)"/>
     <use xlink:href="#Avenir-Book-4f" transform="translate(225.799942 0)"/>
     <use xlink:href="#Avenir-Book-6d" transform="translate(309.199936 0)"/>
     <use xlink:href="#Avenir-Book-69" transform="translate(394.399918 0)"/>
     <use xlink:href="#Avenir-Book-63" transform="translate(418.399902 0)"/>
     <use xlink:href="#Avenir-Book-73" transform="translate(466.599899 0)"/>
     <use xlink:href="#Avenir-Book-52" transform="translate(509.19989 0)"/>
     <use xlink:href="#Avenir-Book-61" transform="translate(568.499878 0)"/>
     <use xlink:href="#Avenir-Book-6e" transform="translate(620.399872 0)"/>
     <use xlink:href="#Avenir-Book-64" transform="translate(675.999863 0)"/>
     <use xlink:href="#Avenir-Book-6f" transform="translate(737.099854 0)"/>
     <use xlink:href="#Avenir-Book-6d" transform="translate(796.399841 0)"/>
     <use xlink:href="#Avenir-Book-46" transform="translate(881.599823 0)"/>
     <use xlink:href="#Avenir-Book-6f" transform="translate(937.199814 0)"/>
     <use xlink:href="#Avenir-Book-72" transform="translate(996.499802 0)"/>
     <use xlink:href="#Avenir-Book-65" transform="translate(1027.949799 0)"/>
     <use xlink:href="#Avenir-Book-73" transform="translate(1083.549789 0)"/>
     <use xlink:href="#Avenir-Book-74" transform="translate(1126.14978 0)"/>
     <use xlink:href="#Avenir-Book-20" transform="translate(1159.349777 0)"/>
     <use xlink:href="#Avenir-Book-28" transform="translate(1187.149765 0)"/>
     <use xlink:href="#Avenir-Book-31" transform="translate(1213.14975 0)"/>
     <use xlink:href="#Avenir-Book-29" transform="translate(1268.749741 0)"/>
    </g>
   </g>
   <g id="PathCollection_2">
    <defs>
     <path id="md981de0145" d="M 0 3 
C 0.795609 3 1.55874 2.683901 2.12132 2.12132 
C 2.683901 1.55874 3 0.795609 3 0 
C 3 -0.795609 2.683901 -1.55874 2.12132 -2.12132 
C 1.55874 -2.683901 0.795609 -3 0 -3 
C -0.795609 -3 -1.55874 -2.683901 -2.12132 -2.12132 
C -2.683901 -1.55874 -3 -0.795609 -3 0 
C -3 0.795609 -2.683901 1.55874 -2.12132 2.12132 
C -1.55874 2.683901 -0.795609 3 0 3 
z
" style="stroke: #1f77b4"/>
    </defs>
    <g clip-path="url(#p1288a02d3b)">
     <use xlink:href="#md981de0145" x="459.71922" y="54.051437" style="fill: #1f77b4; stroke: #1f77b4"/>
    </g>
   </g>
   <g id="text_11">
    <!-- (3) NaivePredictor -->
    <g style="fill: #1f77b4" transform="translate(461.32642 249.927281) scale(0.1 -0.1)">
     <defs>
      <path id="Avenir-Book-4e" d="M 3891 691 
L 3904 691 
L 3904 4531 
L 4365 4531 
L 4365 0 
L 3789 0 
L 1088 3878 
L 1075 3878 
L 1075 0 
L 614 0 
L 614 4531 
L 1190 4531 
L 3891 691 
z
" transform="scale(0.015625)"/>
      <path id="Avenir-Book-76" d="M 1779 0 
L 1306 0 
L 90 2995 
L 595 2995 
L 1549 474 
L 1562 474 
L 2515 2995 
L 2995 2995 
L 1779 0 
z
" transform="scale(0.015625)"/>
      <path id="Avenir-Book-50" d="M 1075 2528 
L 1818 2528 
Q 2125 2528 2339 2592 
Q 2554 2656 2682 2761 
Q 2810 2867 2867 3011 
Q 2925 3155 2925 3322 
Q 2925 3482 2867 3626 
Q 2810 3770 2682 3878 
Q 2554 3987 2339 4048 
Q 2125 4109 1818 4109 
L 1075 4109 
L 1075 2528 
z
M 614 4531 
L 1933 4531 
Q 2624 4531 3024 4230 
Q 3424 3930 3424 3322 
Q 3424 2714 3024 2410 
Q 2624 2106 1933 2106 
L 1075 2106 
L 1075 0 
L 614 0 
L 614 4531 
z
" transform="scale(0.015625)"/>
     </defs>
     <use xlink:href="#Avenir-Book-28"/>
     <use xlink:href="#Avenir-Book-33" transform="translate(25.999985 0)"/>
     <use xlink:href="#Avenir-Book-29" transform="translate(81.599976 0)"/>
     <use xlink:href="#Avenir-Book-20" transform="translate(107.59996 0)"/>
     <use xlink:href="#Avenir-Book-4e" transform="translate(135.399948 0)"/>
     <use xlink:href="#Avenir-Book-61" transform="translate(213.199936 0)"/>
     <use xlink:href="#Avenir-Book-69" transform="translate(265.09993 0)"/>
     <use xlink:href="#Avenir-Book-76" transform="translate(289.099915 0)"/>
     <use xlink:href="#Avenir-Book-65" transform="translate(337.299911 0)"/>
     <use xlink:href="#Avenir-Book-50" transform="translate(392.899902 0)"/>
     <use xlink:href="#Avenir-Book-72" transform="translate(450.299896 0)"/>
     <use xlink:href="#Avenir-Book-65" transform="translate(481.749893 0)"/>
     <use xlink:href="#Avenir-Book-64" transform="translate(537.349884 0)"/>
     <use xlink:href="#Avenir-Book-69" transform="translate(598.449875 0)"/>
     <use xlink:href="#Avenir-Book-63" transform="translate(622.44986 0)"/>
     <use xlink:href="#Avenir-Book-74" transform="translate(670.649857 0)"/>
     <use xlink:href="#Avenir-Book-6f" transform="translate(703.849854 0)"/>
     <use xlink:href="#Avenir-Book-72" transform="translate(763.149841 0)"/>
    </g>
   </g>
   <g id="PathCollection_3">
    <defs>
     <path id="m4e06956676" d="M 0 3 
C 0.795609 3 1.55874 2.683901 2.12132 2.12132 
C 2.683901 1.55874 3 0.795609 3 0 
C 3 -0.795609 2.683901 -1.55874 2.12132 -2.12132 
C 1.55874 -2.683901 0.795609 -3 0 -3 
C -0.795609 -3 -1.55874 -2.683901 -2.12132 -2.12132 
C -2.683901 -1.55874 -3 -0.795609 -3 0 
C -3 0.795609 -2.683901 1.55874 -2.12132 2.12132 
C -1.55874 2.683901 -0.795609 3 0 3 
z
" style="stroke: #ff7f0e"/>
    </defs>
    <g clip-path="url(#p1288a02d3b)">
     <use xlink:href="#m4e06956676" x="298.999148" y="54.051437" style="fill: #ff7f0e; stroke: #ff7f0e"/>
    </g>
   </g>
   <g id="text_12">
    <!-- (2) NaiveMeanEffectsPredictor -->
    <g style="fill: #ff7f0e" transform="translate(461.32642 298.311281) scale(0.1 -0.1)">
     <defs>
      <path id="Avenir-Book-45" d="M 1075 422 
L 3501 422 
L 3501 0 
L 614 0 
L 614 4531 
L 3424 4531 
L 3424 4109 
L 1075 4109 
L 1075 2566 
L 3270 2566 
L 3270 2144 
L 1075 2144 
L 1075 422 
z
" transform="scale(0.015625)"/>
      <path id="Avenir-Book-66" d="M 1856 2611 
L 1146 2611 
L 1146 0 
L 723 0 
L 723 2611 
L 90 2611 
L 90 2995 
L 723 2995 
L 723 3814 
Q 723 4410 998 4662 
Q 1274 4915 1728 4915 
Q 1818 4915 1910 4902 
Q 2003 4890 2093 4870 
L 2016 4486 
Q 1939 4506 1856 4518 
Q 1773 4531 1690 4531 
Q 1517 4531 1408 4473 
Q 1299 4416 1241 4310 
Q 1184 4205 1165 4064 
Q 1146 3923 1146 3763 
L 1146 2995 
L 1856 2995 
L 1856 2611 
z
" transform="scale(0.015625)"/>
     </defs>
     <use xlink:href="#Avenir-Book-28"/>
     <use xlink:href="#Avenir-Book-32" transform="translate(25.999985 0)"/>
     <use xlink:href="#Avenir-Book-29" transform="translate(81.599976 0)"/>
     <use xlink:href="#Avenir-Book-20" transform="translate(107.59996 0)"/>
     <use xlink:href="#Avenir-Book-4e" transform="translate(135.399948 0)"/>
     <use xlink:href="#Avenir-Book-61" transform="translate(213.199936 0)"/>
     <use xlink:href="#Avenir-Book-69" transform="translate(265.09993 0)"/>
     <use xlink:href="#Avenir-Book-76" transform="translate(289.099915 0)"/>
     <use xlink:href="#Avenir-Book-65" transform="translate(337.299911 0)"/>
     <use xlink:href="#Avenir-Book-4d" transform="translate(392.899902 0)"/>
     <use xlink:href="#Avenir-Book-65" transform="translate(481.899887 0)"/>
     <use xlink:href="#Avenir-Book-61" transform="translate(537.499878 0)"/>
     <use xlink:href="#Avenir-Book-6e" transform="translate(589.399872 0)"/>
     <use xlink:href="#Avenir-Book-45" transform="translate(644.999863 0)"/>
     <use xlink:href="#Avenir-Book-66" transform="translate(704.29985 0)"/>
     <use xlink:href="#Avenir-Book-66" transform="translate(732.149841 0)"/>
     <use xlink:href="#Avenir-Book-65" transform="translate(761.749832 0)"/>
     <use xlink:href="#Avenir-Book-63" transform="translate(817.349823 0)"/>
     <use xlink:href="#Avenir-Book-74" transform="translate(865.54982 0)"/>
     <use xlink:href="#Avenir-Book-73" transform="translate(898.749817 0)"/>
     <use xlink:href="#Avenir-Book-50" transform="translate(941.349808 0)"/>
     <use xlink:href="#Avenir-Book-72" transform="translate(998.749802 0)"/>
     <use xlink:href="#Avenir-Book-65" transform="translate(1030.199799 0)"/>
     <use xlink:href="#Avenir-Book-64" transform="translate(1085.799789 0)"/>
     <use xlink:href="#Avenir-Book-69" transform="translate(1146.89978 0)"/>
     <use xlink:href="#Avenir-Book-63" transform="translate(1170.899765 0)"/>
     <use xlink:href="#Avenir-Book-74" transform="translate(1219.099762 0)"/>
     <use xlink:href="#Avenir-Book-6f" transform="translate(1252.299759 0)"/>
     <use xlink:href="#Avenir-Book-72" transform="translate(1311.599747 0)"/>
    </g>
   </g>
   <g id="line2d_19">
    <path d="M 234.711119 102.435437 
L 250.783126 102.435437 
" clip-path="url(#p1288a02d3b)" style="fill: none; stroke: #ff7f0e; stroke-width: 2; stroke-linecap: square"/>
   </g>
   <g id="line2d_20">
    <path d="M 234.711119 150.819437 
L 250.783126 150.819437 
" clip-path="url(#p1288a02d3b)" style="fill: none; stroke: #2ca02c; stroke-width: 2; stroke-linecap: square"/>
   </g>
   <g id="PathCollection_4">
    <g clip-path="url(#p1288a02d3b)">
     <use xlink:href="#m4e06956676" x="234.711119" y="54.051437" style="fill: #ff7f0e; stroke: #ff7f0e"/>
    </g>
   </g>
   <g id="text_13">
    <!-- NaiveMeanEffectsPredictor (1.6) -->
    <g style="fill: #ff7f0e" transform="translate(90.288293 201.543281) scale(0.1 -0.1)">
     <defs>
      <path id="Avenir-Book-36" d="M 768 1325 
Q 768 1107 841 928 
Q 915 749 1049 617 
Q 1184 486 1369 416 
Q 1555 346 1779 346 
Q 2003 346 2188 416 
Q 2374 486 2508 617 
Q 2643 749 2716 928 
Q 2790 1107 2790 1325 
Q 2790 1542 2716 1721 
Q 2643 1901 2508 2029 
Q 2374 2157 2188 2230 
Q 2003 2304 1779 2304 
Q 1555 2304 1369 2230 
Q 1184 2157 1049 2029 
Q 915 1901 841 1721 
Q 768 1542 768 1325 
z
M 1229 2586 
L 1242 2573 
Q 1350 2650 1532 2688 
Q 1715 2726 1869 2726 
Q 2163 2726 2416 2620 
Q 2669 2515 2854 2329 
Q 3040 2144 3145 1888 
Q 3251 1632 3251 1325 
Q 3251 1011 3142 755 
Q 3034 499 2835 313 
Q 2637 128 2368 25 
Q 2099 -77 1779 -77 
Q 1459 -77 1190 25 
Q 922 128 723 313 
Q 525 499 416 755 
Q 307 1011 307 1325 
Q 307 1702 419 1984 
Q 531 2266 698 2541 
L 1920 4531 
L 2464 4531 
L 1229 2586 
z
" transform="scale(0.015625)"/>
     </defs>
     <use xlink:href="#Avenir-Book-4e"/>
     <use xlink:href="#Avenir-Book-61" transform="translate(77.799988 0)"/>
     <use xlink:href="#Avenir-Book-69" transform="translate(129.699982 0)"/>
     <use xlink:href="#Avenir-Book-76" transform="translate(153.699966 0)"/>
     <use xlink:href="#Avenir-Book-65" transform="translate(201.899963 0)"/>
     <use xlink:href="#Avenir-Book-4d" transform="translate(257.499954 0)"/>
     <use xlink:href="#Avenir-Book-65" transform="translate(346.499939 0)"/>
     <use xlink:href="#Avenir-Book-61" transform="translate(402.09993 0)"/>
     <use xlink:href="#Avenir-Book-6e" transform="translate(453.999924 0)"/>
     <use xlink:href="#Avenir-Book-45" transform="translate(509.599915 0)"/>
     <use xlink:href="#Avenir-Book-66" transform="translate(568.899902 0)"/>
     <use xlink:href="#Avenir-Book-66" transform="translate(596.749893 0)"/>
     <use xlink:href="#Avenir-Book-65" transform="translate(626.349884 0)"/>
     <use xlink:href="#Avenir-Book-63" transform="translate(681.949875 0)"/>
     <use xlink:href="#Avenir-Book-74" transform="translate(730.149872 0)"/>
     <use xlink:href="#Avenir-Book-73" transform="translate(763.349869 0)"/>
     <use xlink:href="#Avenir-Book-50" transform="translate(805.94986 0)"/>
     <use xlink:href="#Avenir-Book-72" transform="translate(863.349854 0)"/>
     <use xlink:href="#Avenir-Book-65" transform="translate(894.79985 0)"/>
     <use xlink:href="#Avenir-Book-64" transform="translate(950.399841 0)"/>
     <use xlink:href="#Avenir-Book-69" transform="translate(1011.499832 0)"/>
     <use xlink:href="#Avenir-Book-63" transform="translate(1035.499817 0)"/>
     <use xlink:href="#Avenir-Book-74" transform="translate(1083.699814 0)"/>
     <use xlink:href="#Avenir-Book-6f" transform="translate(1116.899811 0)"/>
     <use xlink:href="#Avenir-Book-72" transform="translate(1176.199799 0)"/>
     <use xlink:href="#Avenir-Book-20" transform="translate(1209.399796 0)"/>
     <use xlink:href="#Avenir-Book-28" transform="translate(1237.199783 0)"/>
     <use xlink:href="#Avenir-Book-31" transform="translate(1263.199768 0)"/>
     <use xlink:href="#Avenir-Book-2e" transform="translate(1318.799759 0)"/>
     <use xlink:href="#Avenir-Book-36" transform="translate(1346.599747 0)"/>
     <use xlink:href="#Avenir-Book-29" transform="translate(1402.199738 0)"/>
    </g>
   </g>
   <g id="PathCollection_5">
    <g clip-path="url(#p1288a02d3b)">
     <use xlink:href="#md981de0145" x="411.503198" y="54.051437" style="fill: #1f77b4; stroke: #1f77b4"/>
    </g>
   </g>
   <g id="text_14">
    <!-- (2.7) NaivePredictor -->
    <g style="fill: #1f77b4" transform="translate(413.110399 201.543281) scale(0.1 -0.1)">
     <use xlink:href="#Avenir-Book-28"/>
     <use xlink:href="#Avenir-Book-32" transform="translate(25.999985 0)"/>
     <use xlink:href="#Avenir-Book-2e" transform="translate(81.599976 0)"/>
     <use xlink:href="#Avenir-Book-37" transform="translate(109.399963 0)"/>
     <use xlink:href="#Avenir-Book-29" transform="translate(164.999954 0)"/>
     <use xlink:href="#Avenir-Book-20" transform="translate(190.999939 0)"/>
     <use xlink:href="#Avenir-Book-4e" transform="translate(218.799927 0)"/>
     <use xlink:href="#Avenir-Book-61" transform="translate(296.599915 0)"/>
     <use xlink:href="#Avenir-Book-69" transform="translate(348.499908 0)"/>
     <use xlink:href="#Avenir-Book-76" transform="translate(372.499893 0)"/>
     <use xlink:href="#Avenir-Book-65" transform="translate(420.69989 0)"/>
     <use xlink:href="#Avenir-Book-50" transform="translate(476.299881 0)"/>
     <use xlink:href="#Avenir-Book-72" transform="translate(533.699875 0)"/>
     <use xlink:href="#Avenir-Book-65" transform="translate(565.149872 0)"/>
     <use xlink:href="#Avenir-Book-64" transform="translate(620.749863 0)"/>
     <use xlink:href="#Avenir-Book-69" transform="translate(681.849854 0)"/>
     <use xlink:href="#Avenir-Book-63" transform="translate(705.849838 0)"/>
     <use xlink:href="#Avenir-Book-74" transform="translate(754.049835 0)"/>
     <use xlink:href="#Avenir-Book-6f" transform="translate(787.249832 0)"/>
     <use xlink:href="#Avenir-Book-72" transform="translate(846.54982 0)"/>
    </g>
   </g>
   <g id="PathCollection_6">
    <g clip-path="url(#p1288a02d3b)">
     <use xlink:href="#me41b40f128" x="250.783126" y="54.051437" style="fill: #2ca02c; stroke: #2ca02c"/>
    </g>
   </g>
   <g id="text_15">
    <!-- (1.7) MultiOmicsRandomForest -->
    <g style="fill: #2ca02c" transform="translate(413.110399 249.927281) scale(0.1 -0.1)">
     <use xlink:href="#Avenir-Book-28"/>
     <use xlink:href="#Avenir-Book-31" transform="translate(25.999985 0)"/>
     <use xlink:href="#Avenir-Book-2e" transform="translate(81.599976 0)"/>
     <use xlink:href="#Avenir-Book-37" transform="translate(109.399963 0)"/>
     <use xlink:href="#Avenir-Book-29" transform="translate(164.999954 0)"/>
     <use xlink:href="#Avenir-Book-20" transform="translate(190.999939 0)"/>
     <use xlink:href="#Avenir-Book-4d" transform="translate(218.799927 0)"/>
     <use xlink:href="#Avenir-Book-75" transform="translate(307.799911 0)"/>
     <use xlink:href="#Avenir-Book-6c" transform="translate(363.399902 0)"/>
     <use xlink:href="#Avenir-Book-74" transform="translate(387.399887 0)"/>
     <use xlink:href="#Avenir-Book-69" transform="translate(420.599884 0)"/>
     <use xlink:href="#Avenir-Book-4f" transform="translate(444.599869 0)"/>
     <use xlink:href="#Avenir-Book-6d" transform="translate(527.999863 0)"/>
     <use xlink:href="#Avenir-Book-69" transform="translate(613.199844 0)"/>
     <use xlink:href="#Avenir-Book-63" transform="translate(637.199829 0)"/>
     <use xlink:href="#Avenir-Book-73" transform="translate(685.399826 0)"/>
     <use xlink:href="#Avenir-Book-52" transform="translate(727.999817 0)"/>
     <use xlink:href="#Avenir-Book-61" transform="translate(787.299805 0)"/>
     <use xlink:href="#Avenir-Book-6e" transform="translate(839.199799 0)"/>
     <use xlink:href="#Avenir-Book-64" transform="translate(894.799789 0)"/>
     <use xlink:href="#Avenir-Book-6f" transform="translate(955.89978 0)"/>
     <use xlink:href="#Avenir-Book-6d" transform="translate(1015.199768 0)"/>
     <use xlink:href="#Avenir-Book-46" transform="translate(1100.39975 0)"/>
     <use xlink:href="#Avenir-Book-6f" transform="translate(1155.999741 0)"/>
     <use xlink:href="#Avenir-Book-72" transform="translate(1215.299728 0)"/>
     <use xlink:href="#Avenir-Book-65" transform="translate(1246.749725 0)"/>
     <use xlink:href="#Avenir-Book-73" transform="translate(1302.349716 0)"/>
     <use xlink:href="#Avenir-Book-74" transform="translate(1344.949707 0)"/>
    </g>
   </g>
   <g id="text_16">
    <!-- Critical Difference Diagram: Metric: RMSE. -->
    <g transform="translate(185.667585 16.27125) scale(0.12 -0.12)">
     <defs>
      <path id="Avenir-Book-43" d="M 4346 717 
Q 4230 544 4060 390 
Q 3891 237 3673 125 
Q 3456 13 3203 -51 
Q 2950 -115 2669 -115 
Q 2163 -115 1731 64 
Q 1299 243 982 560 
Q 666 877 486 1312 
Q 307 1747 307 2266 
Q 307 2784 486 3219 
Q 666 3654 982 3971 
Q 1299 4288 1731 4467 
Q 2163 4646 2669 4646 
Q 3091 4646 3513 4480 
Q 3936 4314 4237 3930 
L 3834 3629 
Q 3763 3738 3641 3846 
Q 3520 3955 3363 4038 
Q 3206 4122 3027 4173 
Q 2848 4224 2669 4224 
Q 2234 4224 1888 4064 
Q 1542 3904 1302 3635 
Q 1062 3366 934 3011 
Q 806 2656 806 2266 
Q 806 1875 934 1520 
Q 1062 1165 1302 896 
Q 1542 627 1888 467 
Q 2234 307 2669 307 
Q 2848 307 3024 339 
Q 3200 371 3369 448 
Q 3539 525 3689 656 
Q 3840 787 3968 986 
L 4346 717 
z
" transform="scale(0.015625)"/>
      <path id="Avenir-Book-44" d="M 1011 422 
L 1907 422 
Q 2426 422 2806 579 
Q 3187 736 3440 995 
Q 3693 1254 3814 1584 
Q 3936 1914 3936 2266 
Q 3936 2618 3814 2947 
Q 3693 3277 3440 3536 
Q 3187 3795 2806 3952 
Q 2426 4109 1907 4109 
L 1011 4109 
L 1011 422 
z
M 550 4531 
L 2054 4531 
Q 2477 4531 2902 4390 
Q 3328 4250 3670 3965 
Q 4013 3680 4224 3254 
Q 4435 2829 4435 2266 
Q 4435 1696 4224 1273 
Q 4013 851 3670 566 
Q 3328 282 2902 141 
Q 2477 0 2054 0 
L 550 0 
L 550 4531 
z
" transform="scale(0.015625)"/>
      <path id="Avenir-Book-67" d="M 768 1536 
Q 768 1299 854 1091 
Q 941 883 1091 726 
Q 1242 570 1443 477 
Q 1645 384 1882 384 
Q 2112 384 2320 467 
Q 2528 550 2688 700 
Q 2848 851 2934 1062 
Q 3021 1274 3014 1536 
Q 3014 1773 2937 1981 
Q 2861 2189 2713 2345 
Q 2566 2502 2355 2595 
Q 2144 2688 1882 2688 
Q 1645 2688 1443 2595 
Q 1242 2502 1091 2345 
Q 941 2189 854 1981 
Q 768 1773 768 1536 
z
M 691 -602 
Q 877 -851 1174 -1001 
Q 1472 -1152 1837 -1152 
Q 2157 -1152 2381 -1059 
Q 2605 -966 2742 -806 
Q 2880 -646 2941 -432 
Q 3002 -218 3002 26 
L 3002 563 
L 2989 563 
Q 2784 256 2489 128 
Q 2195 0 1869 0 
Q 1542 0 1257 115 
Q 973 230 761 432 
Q 550 634 428 915 
Q 307 1197 307 1523 
Q 307 1850 422 2131 
Q 538 2413 739 2624 
Q 941 2835 1219 2953 
Q 1498 3072 1830 3072 
Q 1965 3072 2115 3046 
Q 2266 3021 2416 2957 
Q 2566 2893 2713 2781 
Q 2861 2669 2989 2496 
L 3002 2496 
L 3002 2995 
L 3424 2995 
L 3424 26 
Q 3424 -218 3363 -493 
Q 3302 -768 3126 -998 
Q 2950 -1229 2636 -1382 
Q 2323 -1536 1818 -1536 
Q 1370 -1536 1018 -1389 
Q 666 -1242 378 -934 
L 691 -602 
z
" transform="scale(0.015625)"/>
      <path id="Avenir-Book-3a" d="M 1235 307 
Q 1235 173 1139 67 
Q 1043 -38 890 -38 
Q 736 -38 640 67 
Q 544 173 544 307 
Q 544 442 640 547 
Q 736 653 890 653 
Q 1043 653 1139 547 
Q 1235 442 1235 307 
z
M 1235 2682 
Q 1235 2547 1139 2441 
Q 1043 2336 890 2336 
Q 736 2336 640 2441 
Q 544 2547 544 2682 
Q 544 2816 640 2921 
Q 736 3027 890 3027 
Q 1043 3027 1139 2921 
Q 1235 2816 1235 2682 
z
" transform="scale(0.015625)"/>
      <path id="Avenir-Book-53" d="M 2758 3782 
Q 2458 4224 1882 4224 
Q 1702 4224 1529 4176 
Q 1357 4128 1219 4029 
Q 1082 3930 998 3773 
Q 915 3616 915 3405 
Q 915 3098 1088 2928 
Q 1261 2758 1517 2649 
Q 1773 2541 2077 2454 
Q 2381 2368 2637 2224 
Q 2893 2080 3065 1843 
Q 3238 1606 3238 1197 
Q 3238 890 3107 643 
Q 2976 397 2761 230 
Q 2547 64 2281 -25 
Q 2016 -115 1747 -115 
Q 1331 -115 956 41 
Q 582 198 320 557 
L 736 858 
Q 883 608 1145 457 
Q 1408 307 1766 307 
Q 1939 307 2112 361 
Q 2285 416 2422 521 
Q 2560 627 2649 780 
Q 2739 934 2739 1133 
Q 2739 1370 2640 1526 
Q 2541 1683 2377 1788 
Q 2214 1894 2006 1964 
Q 1798 2035 1577 2105 
Q 1357 2176 1149 2265 
Q 941 2355 777 2492 
Q 614 2630 515 2838 
Q 416 3046 416 3360 
Q 416 3686 541 3929 
Q 666 4173 874 4333 
Q 1082 4493 1344 4569 
Q 1606 4646 1882 4646 
Q 2266 4646 2579 4524 
Q 2893 4403 3162 4096 
L 2758 3782 
z
" transform="scale(0.015625)"/>
     </defs>
     <use xlink:href="#Avenir-Book-43"/>
     <use xlink:href="#Avenir-Book-72" transform="translate(70.399994 0)"/>
     <use xlink:href="#Avenir-Book-69" transform="translate(103.599991 0)"/>
     <use xlink:href="#Avenir-Book-74" transform="translate(127.599976 0)"/>
     <use xlink:href="#Avenir-Book-69" transform="translate(160.799973 0)"/>
     <use xlink:href="#Avenir-Book-63" transform="translate(184.799957 0)"/>
     <use xlink:href="#Avenir-Book-61" transform="translate(232.999954 0)"/>
     <use xlink:href="#Avenir-Book-6c" transform="translate(284.899948 0)"/>
     <use xlink:href="#Avenir-Book-20" transform="translate(308.899933 0)"/>
     <use xlink:href="#Avenir-Book-44" transform="translate(336.699921 0)"/>
     <use xlink:href="#Avenir-Book-69" transform="translate(410.799911 0)"/>
     <use xlink:href="#Avenir-Book-66" transform="translate(434.799896 0)"/>
     <use xlink:href="#Avenir-Book-66" transform="translate(462.649887 0)"/>
     <use xlink:href="#Avenir-Book-65" transform="translate(492.249878 0)"/>
     <use xlink:href="#Avenir-Book-72" transform="translate(547.849869 0)"/>
     <use xlink:href="#Avenir-Book-65" transform="translate(579.299866 0)"/>
     <use xlink:href="#Avenir-Book-6e" transform="translate(634.899857 0)"/>
     <use xlink:href="#Avenir-Book-63" transform="translate(690.499847 0)"/>
     <use xlink:href="#Avenir-Book-65" transform="translate(738.699844 0)"/>
     <use xlink:href="#Avenir-Book-20" transform="translate(794.299835 0)"/>
     <use xlink:href="#Avenir-Book-44" transform="translate(822.099823 0)"/>
     <use xlink:href="#Avenir-Book-69" transform="translate(896.199814 0)"/>
     <use xlink:href="#Avenir-Book-61" transform="translate(920.199799 0)"/>
     <use xlink:href="#Avenir-Book-67" transform="translate(972.099792 0)"/>
     <use xlink:href="#Avenir-Book-72" transform="translate(1033.199783 0)"/>
     <use xlink:href="#Avenir-Book-61" transform="translate(1066.39978 0)"/>
     <use xlink:href="#Avenir-Book-6d" transform="translate(1118.299774 0)"/>
     <use xlink:href="#Avenir-Book-3a" transform="translate(1203.499756 0)"/>
     <use xlink:href="#Avenir-Book-20" transform="translate(1231.299744 0)"/>
     <use xlink:href="#Avenir-Book-4d" transform="translate(1259.099731 0)"/>
     <use xlink:href="#Avenir-Book-65" transform="translate(1348.099716 0)"/>
     <use xlink:href="#Avenir-Book-74" transform="translate(1403.699707 0)"/>
     <use xlink:href="#Avenir-Book-72" transform="translate(1436.899704 0)"/>
     <use xlink:href="#Avenir-Book-69" transform="translate(1470.099701 0)"/>
     <use xlink:href="#Avenir-Book-63" transform="translate(1494.099686 0)"/>
     <use xlink:href="#Avenir-Book-3a" transform="translate(1542.299683 0)"/>
     <use xlink:href="#Avenir-Book-20" transform="translate(1570.09967 0)"/>
     <use xlink:href="#Avenir-Book-52" transform="translate(1597.899658 0)"/>
     <use xlink:href="#Avenir-Book-4d" transform="translate(1657.199646 0)"/>
     <use xlink:href="#Avenir-Book-53" transform="translate(1746.199631 0)"/>
     <use xlink:href="#Avenir-Book-45" transform="translate(1801.799622 0)"/>
     <use xlink:href="#Avenir-Book-2e" transform="translate(1861.099609 0)"/>
    </g>
    <!-- Overall Friedman-Chi2 p-value: 2.47e-02 -->
    <g transform="translate(189.983835 30.612375) scale(0.12 -0.12)">
     <defs>
      <path id="Avenir-Book-2d" d="M 1888 1325 
L 243 1325 
L 243 1747 
L 1888 1747 
L 1888 1325 
z
" transform="scale(0.015625)"/>
      <path id="Avenir-Book-68" d="M 461 4838 
L 883 4838 
L 883 2515 
L 896 2515 
Q 966 2637 1075 2739 
Q 1184 2842 1318 2915 
Q 1453 2989 1603 3030 
Q 1754 3072 1901 3072 
Q 2477 3072 2752 2768 
Q 3027 2464 3027 1901 
L 3027 0 
L 2605 0 
L 2605 1658 
Q 2605 2157 2432 2422 
Q 2259 2688 1792 2688 
Q 1760 2688 1613 2662 
Q 1466 2637 1302 2521 
Q 1139 2406 1011 2176 
Q 883 1946 883 1536 
L 883 0 
L 461 0 
L 461 4838 
z
" transform="scale(0.015625)"/>
      <path id="Avenir-Book-70" d="M 3194 1498 
Q 3194 1747 3114 1964 
Q 3034 2182 2886 2342 
Q 2739 2502 2531 2595 
Q 2323 2688 2061 2688 
Q 1798 2688 1580 2595 
Q 1363 2502 1203 2342 
Q 1043 2182 953 1964 
Q 864 1747 864 1498 
Q 864 1248 953 1030 
Q 1043 813 1203 653 
Q 1363 493 1580 400 
Q 1798 307 2061 307 
Q 2323 307 2531 400 
Q 2739 493 2886 653 
Q 3034 813 3114 1030 
Q 3194 1248 3194 1498 
z
M 461 2995 
L 883 2995 
L 883 2496 
L 896 2496 
Q 998 2650 1139 2758 
Q 1280 2867 1433 2937 
Q 1587 3008 1750 3040 
Q 1914 3072 2061 3072 
Q 2413 3072 2704 2953 
Q 2995 2835 3206 2624 
Q 3418 2413 3536 2125 
Q 3654 1837 3654 1498 
Q 3654 1158 3536 870 
Q 3418 582 3206 371 
Q 2995 160 2704 41 
Q 2413 -77 2061 -77 
Q 1914 -77 1750 -45 
Q 1587 -13 1433 57 
Q 1280 128 1139 237 
Q 998 346 896 499 
L 883 499 
L 883 -1843 
L 461 -1843 
L 461 2995 
z
" transform="scale(0.015625)"/>
      <path id="Avenir-Book-34" d="M 2202 4070 
L 2189 4070 
L 627 1498 
L 2202 1498 
L 2202 4070 
z
M 2662 1498 
L 3315 1498 
L 3315 1075 
L 2662 1075 
L 2662 0 
L 2202 0 
L 2202 1075 
L 243 1075 
L 243 1600 
L 2074 4531 
L 2662 4531 
L 2662 1498 
z
" transform="scale(0.015625)"/>
     </defs>
     <use xlink:href="#Avenir-Book-4f"/>
     <use xlink:href="#Avenir-Book-76" transform="translate(83.399994 0)"/>
     <use xlink:href="#Avenir-Book-65" transform="translate(131.599991 0)"/>
     <use xlink:href="#Avenir-Book-72" transform="translate(187.199982 0)"/>
     <use xlink:href="#Avenir-Book-61" transform="translate(220.399979 0)"/>
     <use xlink:href="#Avenir-Book-6c" transform="translate(272.299973 0)"/>
     <use xlink:href="#Avenir-Book-6c" transform="translate(296.299957 0)"/>
     <use xlink:href="#Avenir-Book-20" transform="translate(320.299942 0)"/>
     <use xlink:href="#Avenir-Book-46" transform="translate(348.09993 0)"/>
     <use xlink:href="#Avenir-Book-72" transform="translate(403.699921 0)"/>
     <use xlink:href="#Avenir-Book-69" transform="translate(436.899918 0)"/>
     <use xlink:href="#Avenir-Book-65" transform="translate(460.899902 0)"/>
     <use xlink:href="#Avenir-Book-64" transform="translate(516.499893 0)"/>
     <use xlink:href="#Avenir-Book-6d" transform="translate(577.599884 0)"/>
     <use xlink:href="#Avenir-Book-61" transform="translate(662.799866 0)"/>
     <use xlink:href="#Avenir-Book-6e" transform="translate(714.69986 0)"/>
     <use xlink:href="#Avenir-Book-2d" transform="translate(770.29985 0)"/>
     <use xlink:href="#Avenir-Book-43" transform="translate(803.599838 0)"/>
     <use xlink:href="#Avenir-Book-68" transform="translate(873.999832 0)"/>
     <use xlink:href="#Avenir-Book-69" transform="translate(929.599823 0)"/>
     <use xlink:href="#Avenir-Book-32" transform="translate(953.599808 0)"/>
     <use xlink:href="#Avenir-Book-20" transform="translate(1009.199799 0)"/>
     <use xlink:href="#Avenir-Book-70" transform="translate(1036.999786 0)"/>
     <use xlink:href="#Avenir-Book-2d" transform="translate(1098.099777 0)"/>
     <use xlink:href="#Avenir-Book-76" transform="translate(1131.399765 0)"/>
     <use xlink:href="#Avenir-Book-61" transform="translate(1179.599762 0)"/>
     <use xlink:href="#Avenir-Book-6c" transform="translate(1231.499756 0)"/>
     <use xlink:href="#Avenir-Book-75" transform="translate(1255.499741 0)"/>
     <use xlink:href="#Avenir-Book-65" transform="translate(1311.099731 0)"/>
     <use xlink:href="#Avenir-Book-3a" transform="translate(1366.699722 0)"/>
     <use xlink:href="#Avenir-Book-20" transform="translate(1394.49971 0)"/>
     <use xlink:href="#Avenir-Book-32" transform="translate(1422.299698 0)"/>
     <use xlink:href="#Avenir-Book-2e" transform="translate(1477.899689 0)"/>
     <use xlink:href="#Avenir-Book-34" transform="translate(1505.699677 0)"/>
     <use xlink:href="#Avenir-Book-37" transform="translate(1561.299667 0)"/>
     <use xlink:href="#Avenir-Book-65" transform="translate(1616.899658 0)"/>
     <use xlink:href="#Avenir-Book-2d" transform="translate(1672.499649 0)"/>
     <use xlink:href="#Avenir-Book-30" transform="translate(1705.799637 0)"/>
     <use xlink:href="#Avenir-Book-32" transform="translate(1761.399628 0)"/>
    </g>
   </g>
  </g>
 </g>
 <defs>
  <clipPath id="p1288a02d3b">
   <rect x="120.439148" y="41.955437" width="357.12" height="266.112"/>
  </clipPath>
 </defs>
</svg>
